<svg version="1.1" fill="#f38e82" id="icon-plan" xmlns="http://www.w3.org/2000/svg" x="0" y="0" viewBox="0 0 57 57" style="enable-background:new 0 0 57 57" xml:space="preserve"><path d="M44 30.5c-7.168 0-13 5.832-13 13s5.832 13 13 13 13-5.832 13-13-5.832-13-13-13zm0 24c-6.065 0-11-4.935-11-11s4.935-11 11-11 11 4.935 11 11-4.935 11-11 11z"/><path d="M50 42.5h-5v-5a1 1 0 1 0-2 0v5h-5a1 1 0 1 0 0 2h5v5a1 1 0 1 0 2 0v-5h5a1 1 0 1 0 0-2z"/><path d="M27 43.5a1 1 0 1 1 0-2h1.139c.754-6.002 4.84-10.968 10.346-13H27a1 1 0 1 1 0-2h18a1 1 0 0 1 1 1c0 .048-.021.089-.027.135A15.92 15.92 0 0 1 54 31.03V12.676C54 5.962 48.538.5 41.824.5H12.176C5.462.5 0 5.962 0 12.676v29.648C0 49.038 5.462 54.5 12.176 54.5h20.236C29.685 51.629 28 47.762 28 43.5h-1zm0-31h18a1 1 0 1 1 0 2H27a1 1 0 1 1 0-2zm-6.312 25.65-6.857 7.999a.999.999 0 0 1-1.36.15L7.9 42.87a.999.999 0 1 1 1.2-1.599l3.822 2.866 6.248-7.287a.999.999 0 1 1 1.518 1.3zm0-15-6.857 8a.999.999 0 0 1-1.36.15L7.9 27.871a.999.999 0 1 1 1.2-1.599l3.822 2.866 6.248-7.288a.999.999 0 1 1 1.518 1.3zm0-14-6.857 8a.999.999 0 0 1-1.36.15L7.9 13.871a.999.999 0 1 1 1.2-1.599l3.822 2.866L19.17 7.85a.999.999 0 1 1 1.518 1.3z"/></svg>