<svg version="1.1" id="icon-list" xmlns="http://www.w3.org/2000/svg" x="0" y="0" viewBox="0 0 512 512" style="enable-background:new 0 0 512 512" xml:space="preserve"><path fill="#f38e82" d="M409.921 34.205h-70.263c-3.354-9.93-12.752-17.102-23.8-17.102H289.76C281.839 6.451 269.292 0 256 0s-25.839 6.451-33.76 17.102h-26.098c-11.048 0-20.446 7.172-23.8 17.102h-70.263c-18.566 0-33.67 15.105-33.67 33.67V478.33c0 18.566 15.105 33.67 33.67 33.67H409.92c18.566 0 33.67-15.105 33.67-33.67V67.875c.001-18.566-15.104-33.67-33.669-33.67zm-222.865 8.037.001-.02v-.011c.005-5.005 4.078-9.075 9.085-9.075h30.397a8.016 8.016 0 0 0 6.929-3.985c4.781-8.213 13.204-13.117 22.532-13.117s17.751 4.904 22.532 13.117a8.017 8.017 0 0 0 6.929 3.985h30.397c4.999 0 9.067 4.059 9.085 9.055l-.001.031c0 .021.003.042.003.062V68.41H187.056V42.242zM427.557 478.33c0 9.725-7.912 17.637-17.637 17.637H102.079c-9.725 0-17.637-7.912-17.637-17.637V67.875c0-9.725 7.912-17.637 17.637-17.637h68.944v26.188a8.017 8.017 0 0 0 8.017 8.017h153.92a8.017 8.017 0 0 0 8.017-8.017V50.238h68.944c9.725 0 17.637 7.912 17.637 17.637V478.33z"/><path d="M256.086 34.205H256c-4.427 0-7.974 3.589-7.974 8.017 0 4.427 3.632 8.017 8.059 8.017a8.017 8.017 0 0 0 .001-16.034zM401.37 68.409h-34.206a8.017 8.017 0 0 0 0 16.034h26.189v377.319H118.647V84.443h26.19a8.017 8.017 0 0 0 0-16.034H110.63a8.017 8.017 0 0 0-8.017 8.017v393.353a8.017 8.017 0 0 0 8.017 8.017h290.74a8.017 8.017 0 0 0 8.017-8.017V76.426a8.018 8.018 0 0 0-8.017-8.017z"/><path fill="#f38e82" d="M204.693 171.023a8.017 8.017 0 0 0-8.017 8.017c0 9.725-7.912 17.637-17.637 17.637s-17.637-7.912-17.637-17.637 7.912-17.637 17.637-17.637a8.017 8.017 0 0 0 0-16.034c-18.566 0-33.67 15.105-33.67 33.67s15.105 33.67 33.67 33.67 33.67-15.105 33.67-33.67a8.016 8.016 0 0 0-8.016-8.016z"/><path d="M204.693 265.086a8.017 8.017 0 0 0-8.017 8.017c0 9.725-7.912 17.637-17.637 17.637s-17.637-7.912-17.637-17.637 7.912-17.637 17.637-17.637a8.017 8.017 0 0 0 0-16.034c-18.566 0-33.67 15.105-33.67 33.67s15.105 33.67 33.67 33.67 33.67-15.105 33.67-33.67a8.016 8.016 0 0 0-8.016-8.016z"/><path fill="#f38e82" d="M358.614 282.188H238.898a8.017 8.017 0 0 0 0 16.034h119.716a8.017 8.017 0 0 0 0-16.034zM324.409 247.983h-85.511a8.017 8.017 0 0 0 0 16.034h85.511a8.017 8.017 0 0 0 0-16.034z"/><path d="M358.614 188.125H238.898a8.017 8.017 0 0 0 0 16.034h119.716a8.017 8.017 0 0 0 0-16.034z"/><path fill="#f38e82" d="M324.409 153.921h-85.511a8.017 8.017 0 0 0 0 16.034h85.511a8.017 8.017 0 0 0 0-16.034zM204.693 359.148a8.017 8.017 0 0 0-8.017 8.017c0 9.725-7.912 17.637-17.637 17.637s-17.637-7.912-17.637-17.637 7.912-17.637 17.637-17.637a8.017 8.017 0 0 0 0-16.034c-18.566 0-33.67 15.105-33.67 33.67 0 18.566 15.105 33.67 33.67 33.67s33.67-15.105 33.67-33.67a8.016 8.016 0 0 0-8.016-8.016zM358.614 376.251H238.898a8.017 8.017 0 0 0 0 16.034h119.716a8.017 8.017 0 0 0 0-16.034z"/><path d="M324.409 342.046h-85.511a8.017 8.017 0 0 0 0 16.034h85.511a8.017 8.017 0 0 0 0-16.034z"/></svg>